<?xml version="1.0" encoding="UTF-8"?>
<!DOCTYPE svg PUBLIC "-//W3C//DTD SVG 1.1//EN" "http://www.w3.org/Graphics/SVG/1.1/DTD/svg11.dtd">
<!-- Creator: CorelDRAW X8 -->
<svg xmlns="http://www.w3.org/2000/svg" xml:space="preserve" width="50mm" height="50mm" version="1.1" style="shape-rendering:geometricPrecision; text-rendering:geometricPrecision; image-rendering:optimizeQuality; fill-rule:evenodd; clip-rule:evenodd"
viewBox="0 0 50000 50000"
 xmlns:xlink="http://www.w3.org/1999/xlink">
 <defs>
  <style type="text/css">
   <![CDATA[
    .fil0 {fill:#FEFEFE}
    .fil1 {fill:#201E1E}
   ]]>
  </style>
 </defs>
 <g id="Capa_x0020_1">
  <metadata id="CorelCorpID_0Corel-Layer"/>
  <g id="_806419148976">
   <g>
    <circle class="fil0" cx="25000" cy="25000" r="24125"/>
    <path class="fil1" d="M21817 13611l-1922 -1950c-664,-673 -705,-498 -96,-1119l464 -482c492,-522 412,-457 1033,170l396 401c1903,1942 1349,1856 3376,-269l3569 -3740c846,-888 776,-998 1417,-302l223 227c671,685 623,487 -38,1173l-5304 5553c-1878,1968 -1454,2059 -3118,338z"/>
   </g>
   <path class="fil1" d="M12270 39648l1674 -2360c633,-894 421,-711 1541,-705l2952 16c1021,4 1295,-70 1617,-464 507,-621 1030,-1224 1580,-1808 331,-354 307,-485 286,-1702 5,-1731 25,-1336 -1414,-2439 -1170,-959 -1003,-834 -993,-2600l35 -6489c7,-1412 102,-1146 1089,-2198 1225,-1307 834,-1344 2581,-1332l4810 37c1572,11 1302,236 2637,1720 878,975 747,688 747,2002l0 6260c0,1839 150,1676 -1067,2692 -1330,1133 -1376,753 -1376,2448 0,1876 -197,1442 1169,2724 1278,1198 872,1124 2607,1123l3456 -4c1014,0 939,-103 1355,640l1231 2271c1062,1963 1357,2171 261,2724 -11062,5554 -16162,5957 -27204,-70 -1165,-636 -837,-708 426,-2486z"/>
  </g>
 </g>
</svg>
