<?xml version="1.0" encoding="UTF-8"?>
<!DOCTYPE svg PUBLIC "-//W3C//DTD SVG 1.1//EN" "http://www.w3.org/Graphics/SVG/1.1/DTD/svg11.dtd">
<!-- Creator: CorelDRAW X8 -->
<svg xmlns="http://www.w3.org/2000/svg" xml:space="preserve" width="50mm" height="50mm" version="1.1" style="shape-rendering:geometricPrecision; text-rendering:geometricPrecision; image-rendering:optimizeQuality; fill-rule:evenodd; clip-rule:evenodd"
viewBox="0 0 50000 50000"
 xmlns:xlink="http://www.w3.org/1999/xlink">
 <defs>
  <style type="text/css">
   <![CDATA[
    .fil0 {fill:white}
   ]]>
  </style>
 </defs>
 <g id="Capa_x0020_1">
  <metadata id="CorelCorpID_0Corel-Layer"/>
  <g id="_806338683792">
   <path class="fil0" d="M23079 25029l3 -9614c-18,-1875 -246,-2040 1116,-2046 796,-2 1594,-17 2388,-18 1063,-2 986,189 971,1806l4 9872c-16,1524 47,1687 -1255,1697 -793,5 -1596,18 -2387,17 -923,-2 -824,-197 -840,-1714z"/>
   <path class="fil0" d="M23071 34104l1 -1849c2,-1292 -219,-1177 1234,-1177l1677 -1c1666,0 1532,-183 1509,1221l-2 1936c0,1446 101,1175 -1291,1196l-2043 0c-1128,-64 -1085,128 -1085,-1326z"/>
   <path class="fil0" d="M25333 1536c12692,0 22980,10289 22980,22981 0,12692 -10288,22980 -22980,22980 -12692,0 -22981,-10288 -22981,-22980 0,-12692 10289,-22981 22981,-22981zm248 3966c10521,0 19048,8527 19048,19048 0,10522 -8527,19049 -19048,19049 -10522,0 -19049,-8527 -19049,-19049 0,-10521 8527,-19048 19049,-19048z"/>
  </g>
 </g>
</svg>
