<?xml version="1.0" encoding="UTF-8"?>
<!DOCTYPE svg PUBLIC "-//W3C//DTD SVG 1.1//EN" "http://www.w3.org/Graphics/SVG/1.1/DTD/svg11.dtd">
<!-- Creator: CorelDRAW X8 -->
<svg xmlns="http://www.w3.org/2000/svg" xml:space="preserve" width="50mm" height="50mm" version="1.1" style="shape-rendering:geometricPrecision; text-rendering:geometricPrecision; image-rendering:optimizeQuality; fill-rule:evenodd; clip-rule:evenodd"
viewBox="0 0 50000 50000"
 xmlns:xlink="http://www.w3.org/1999/xlink">
 <defs>
  <style type="text/css">
   <![CDATA[
    .fil0 {fill:#FEFEFE}
   ]]>
  </style>
 </defs>
 <g id="Capa_x0020_1">
  <metadata id="CorelCorpID_0Corel-Layer"/>
  <path class="fil0" d="M37060 14838l-10402 8998c-3144,2558 -2906,3505 -2931,-454l-31 -5033c-5426,311 -9690,5226 -9690,10829 0,5603 4624,10329 10329,10329 5706,0 10329,-4623 10329,-10329 0,-1132 -183,-2222 -517,-3240 -611,-1843 -1164,-1294 305,-2595l612 -541 636 -562 916 -810c651,-573 1227,-1209 1866,-1779 843,-746 1109,-477 2062,1710 2931,6737 1855,14182 -2153,19329 -3097,3982 -7952,6596 -14056,6459 -9921,-224 -17970,-8045 -17970,-17971 0,-10758 8424,-18086 17367,-18395l14 -6452c6,-3773 -576,-3821 2274,-1416l10557 8911c2158,1822 2464,1300 483,3012z"/>
 </g>
</svg>
