<?xml version="1.0" encoding="UTF-8"?>
<!DOCTYPE svg PUBLIC "-//W3C//DTD SVG 1.1//EN" "http://www.w3.org/Graphics/SVG/1.1/DTD/svg11.dtd">
<!-- Creator: CorelDRAW X8 -->
<svg xmlns="http://www.w3.org/2000/svg" xml:space="preserve" width="50mm" height="20mm" version="1.1" style="shape-rendering:geometricPrecision; text-rendering:geometricPrecision; image-rendering:optimizeQuality; fill-rule:evenodd; clip-rule:evenodd"
viewBox="0 0 50000 20000"
 xmlns:xlink="http://www.w3.org/1999/xlink">
 <defs>
  <style type="text/css">
   <![CDATA[
    .str0 {stroke:#FEFEFE;stroke-width:76.2}
    .fil0 {fill:#FEFEFE}
   ]]>
  </style>
 </defs>
 <g id="Capa_x0020_1">
  <metadata id="CorelCorpID_0Corel-Layer"/>
  <g id="_806419133680">
   <path class="fil0 str0" d="M34800 8902l-9 -4362 -3762 -2206 -3750 2153 7 4362 3764 2206 3750 -2153zm-324 -190l-8 -3986 -3438 -2017 -3427 1968 6 3987 3440 2015 3427 -1967z"/>
   <path class="fil0 str0" d="M26798 8921l-10 -4361 -3761 -2206 -3750 2153 7 4362 3764 2205 3750 -2153zm-324 -190l-9 -3985 -3437 -2017 -3427 1968 6 3987 3440 2015 3427 -1968z"/>
   <path class="fil0 str0" d="M18878 8907l-9 -4361 -3762 -2206 -3750 2153 7 4362 3764 2205 3750 -2153zm-324 -190l-8 -3985 -3438 -2017 -3427 1968 6 3987 3440 2015 3427 -1968z"/>
   <path class="fil0 str0" d="M10884 8904l-9 -4361 -3762 -2207 -3750 2153 7 4363 3764 2205 3750 -2153zm-324 -190l-8 -3986 -3438 -2016 -3427 1967 7 3987 3439 2016 3427 -1968z"/>
   <path class="fil0 str0" d="M42785 8951l-10 -4361 -3761 -2207 -3750 2153 7 4363 3764 2205 3750 -2153zm-324 -190l-9 -3986 -3437 -2016 -3427 1968 6 3986 3440 2016 3427 -1968z"/>
   <path class="fil0 str0" d="M38877 15773l-9 -4361 -3762 -2206 -3750 2153 7 4362 3764 2205 3750 -2153zm-324 -190l-8 -3985 -3438 -2017 -3427 1968 7 3987 3439 2015 3427 -1968z"/>
   <path class="fil0 str0" d="M30875 15793l-9 -4361 -3762 -2206 -3750 2153 7 4362 3764 2205 3750 -2153zm-324 -190l-8 -3985 -3438 -2017 -3427 1968 6 3987 3440 2015 3427 -1968z"/>
   <path class="fil0 str0" d="M22956 15779l-10 -4361 -3761 -2206 -3750 2153 7 4362 3764 2205 3750 -2153zm-324 -190l-9 -3985 -3438 -2017 -3427 1968 7 3987 3440 2015 3427 -1968z"/>
   <path class="fil0 str0" d="M14962 15776l-10 -4361 -3761 -2207 -3750 2153 7 4363 3764 2205 3750 -2153zm-324 -190l-9 -3986 -3438 -2016 -3427 1967 7 3987 3440 2015 3427 -1967z"/>
   <path class="fil0 str0" d="M46692 15823l-9 -4361 -3762 -2207 -3749 2153 7 4363 3763 2205 3750 -2153zm-324 -190l-8 -3986 -3438 -2016 -3427 1967 7 3987 3439 2015 3427 -1967z"/>
  </g>
 </g>
</svg>
