<?xml version="1.0" encoding="UTF-8"?>
<!DOCTYPE svg PUBLIC "-//W3C//DTD SVG 1.1//EN" "http://www.w3.org/Graphics/SVG/1.1/DTD/svg11.dtd">
<!-- Creator: CorelDRAW X8 -->
<svg xmlns="http://www.w3.org/2000/svg" xml:space="preserve" width="100mm" height="100mm" version="1.1" style="shape-rendering:geometricPrecision; text-rendering:geometricPrecision; image-rendering:optimizeQuality; fill-rule:evenodd; clip-rule:evenodd"
viewBox="0 0 100000 100000"
 xmlns:xlink="http://www.w3.org/1999/xlink">
 <defs>
  <style type="text/css">
   <![CDATA[
    .fil0 {fill:#FEFEFE}
   ]]>
  </style>
 </defs>
 <g id="Capa_x0020_1">
  <metadata id="CorelCorpID_0Corel-Layer"/>
  <path class="fil0" d="M54397 53093l8745 8489c4574,4438 6092,4296 -349,4296l-9547 0c-5087,0 -4776,972 -8219,-2579l-6438 -6640c-8664,-8931 -7373,-6222 1912,-15771l4196 -4316c4885,-5023 3222,-4421 10209,-4421l7473 0c7270,0 6169,-505 1091,4718l-8897 9150c-4198,4319 -4396,2978 -176,7074z"/>
  <path class="fil0" d="M50889 12456c20157,0 36498,16341 36498,36500 0,20156 -16341,36497 -36498,36497 -20159,0 -36500,-16341 -36500,-36497 0,-20159 16341,-36500 36500,-36500zm387 6574c16527,0 29924,13397 29924,29925 0,16527 -13397,29924 -29924,29924 -16528,0 -29925,-13397 -29925,-29924 0,-16528 13397,-29925 29925,-29925z"/>
 </g>
</svg>
