<?xml version="1.0" encoding="UTF-8"?>
<!DOCTYPE svg PUBLIC "-//W3C//DTD SVG 1.1//EN" "http://www.w3.org/Graphics/SVG/1.1/DTD/svg11.dtd">
<!-- Creator: CorelDRAW X8 -->
<svg xmlns="http://www.w3.org/2000/svg" xml:space="preserve" width="50mm" height="50mm" version="1.1" style="shape-rendering:geometricPrecision; text-rendering:geometricPrecision; image-rendering:optimizeQuality; fill-rule:evenodd; clip-rule:evenodd"
viewBox="0 0 50000 50000"
 xmlns:xlink="http://www.w3.org/1999/xlink">
 <defs>
  <style type="text/css">
   <![CDATA[
    .fil0 {fill:#FEFEFE}
   ]]>
  </style>
 </defs>
 <g id="Capa_x0020_1">
  <metadata id="CorelCorpID_0Corel-Layer"/>
  <g id="_806419999680">
   <path class="fil0" d="M19308 32242l-5169 -5198c-1769,-1782 -1486,-1559 9,-3004l798 -787c1477,-1513 1296,-1156 3123,671l1490 1488c3034,2853 2234,2571 4803,6l6449 -6386c1315,-1304 1498,-1805 2658,-863l1937 1923c499,741 185,1251 -885,2321 -3239,3231 -6727,6705 -9970,10129 -2406,2541 -2184,2830 -5243,-300z"/>
   <path class="fil0" d="M24486 2065c12328,0 22320,9991 22320,22319 0,12328 -9992,22320 -22320,22320 -12328,0 -22319,-9992 -22319,-22320 0,-12328 9991,-22319 22319,-22319zm16 3931c10136,0 18352,8216 18352,18353 0,10136 -8216,18352 -18352,18352 -10136,0 -18352,-8216 -18352,-18352 0,-10137 8216,-18353 18352,-18353z"/>
  </g>
 </g>
</svg>
