<?xml version="1.0" encoding="UTF-8"?>
<!DOCTYPE svg PUBLIC "-//W3C//DTD SVG 1.1//EN" "http://www.w3.org/Graphics/SVG/1.1/DTD/svg11.dtd">
<!-- Creator: CorelDRAW X8 -->
<svg xmlns="http://www.w3.org/2000/svg" xml:space="preserve" width="50mm" height="50mm" version="1.1" style="shape-rendering:geometricPrecision; text-rendering:geometricPrecision; image-rendering:optimizeQuality; fill-rule:evenodd; clip-rule:evenodd"
viewBox="0 0 50000 50000"
 xmlns:xlink="http://www.w3.org/1999/xlink">
 <defs>
  <style type="text/css">
   <![CDATA[
    .str0 {stroke:#FEFEFE;stroke-width:2116.6}
    .fil1 {fill:none}
    .fil0 {fill:#FEFEFE}
   ]]>
  </style>
 </defs>
 <g id="Capa_x0020_1">
  <metadata id="CorelCorpID_0Corel-Layer"/>
  <g id="_806426188512">
   <path class="fil0" d="M25455 2644c12649,0 22903,10255 22903,22904 0,12649 -10254,22903 -22903,22903 -12649,0 -22903,-10254 -22903,-22903 0,-12649 10254,-22904 22903,-22904zm18 3442c10830,0 19610,8780 19610,19610 0,10831 -8780,19610 -19610,19610 -10831,0 -19610,-8779 -19610,-19610 0,-10830 8779,-19610 19610,-19610z"/>
   <path class="fil1 str0" d="M23577 24246l-8520 0c-2100,24 -1939,2894 -4,2881l8524 0 -4 8644c512,2413 2969,1792 2941,0l0 -8648 8596 4c1977,-24 1721,-2803 -12,-2881l-8580 -4 8 -8580c-110,-1508 -2695,-1620 -2949,-1l0 8585z"/>
  </g>
 </g>
</svg>
