<?xml version="1.0" encoding="UTF-8"?>
<!DOCTYPE svg PUBLIC "-//W3C//DTD SVG 1.1//EN" "http://www.w3.org/Graphics/SVG/1.1/DTD/svg11.dtd">
<!-- Creator: CorelDRAW X8 -->
<svg xmlns="http://www.w3.org/2000/svg" xml:space="preserve" width="50mm" height="50mm" version="1.1" style="shape-rendering:geometricPrecision; text-rendering:geometricPrecision; image-rendering:optimizeQuality; fill-rule:evenodd; clip-rule:evenodd"
viewBox="0 0 50000 50000"
 xmlns:xlink="http://www.w3.org/1999/xlink">
 <defs>
  <style type="text/css">
   <![CDATA[
    .str0 {stroke:#FEFEFE;stroke-width:2116.6}
    .fil0 {fill:none}
    .fil1 {fill:#FEFEFE}
   ]]>
  </style>
 </defs>
 <g id="Capa_x0020_1">
  <metadata id="CorelCorpID_0Corel-Layer"/>
  <g id="_806419151184">
   <path class="fil0 str0" d="M40682 12541l-29930 0 7 25977c20,6531 1667,7359 7171,7385l15461 6c4192,178 7403,-1434 7291,-6829l0 -26539z"/>
   <path class="fil0 str0" d="M41759 7814l-31499 1c-2291,19 -1907,-1 -1968,1931 -47,1496 121,1435 1632,1504l32073 2c825,-42 921,-66 922,-1112 0,-448 7,-895 12,-1343 8,-733 -85,-1027 -1172,-983z"/>
   <polygon class="fil1" points="17921,38826 17921,18529 19116,18528 19115,38827 "/>
   <path class="fil0 str0" d="M31826 6566l-11740 0c-1088,0 -939,64 -946,-664 0,-307 3,-615 2,-923 0,-41 -3,-82 -1,-123 60,-1264 -505,-2960 2385,-3077l975 0 7352 -2c2442,58 2463,1773 2438,3184l-15 856c-10,578 27,735 -450,749z"/>
   <polygon class="fil1" points="25052,38826 25052,18528 26246,18528 26245,38827 "/>
   <polygon class="fil1" points="32290,38900 32290,18603 33485,18602 33484,38901 "/>
  </g>
 </g>
</svg>
