<?xml version="1.0" encoding="UTF-8"?>
<!DOCTYPE svg PUBLIC "-//W3C//DTD SVG 1.1//EN" "http://www.w3.org/Graphics/SVG/1.1/DTD/svg11.dtd">
<!-- Creator: CorelDRAW X8 -->
<svg xmlns="http://www.w3.org/2000/svg" xml:space="preserve" width="50mm" height="50mm" version="1.1" style="shape-rendering:geometricPrecision; text-rendering:geometricPrecision; image-rendering:optimizeQuality; fill-rule:evenodd; clip-rule:evenodd"
viewBox="0 0 50000 50000"
 xmlns:xlink="http://www.w3.org/1999/xlink">
 <defs>
  <style type="text/css">
   <![CDATA[
    .str0 {stroke:#FEFEFE;stroke-width:169.3}
    .fil0 {fill:#FEFEFE}
   ]]>
  </style>
 </defs>
 <g id="Capa_x0020_1">
  <metadata id="CorelCorpID_0Corel-Layer"/>
  <g id="_806420010304">
   <path class="fil0 str0" d="M1921 43118l-2 3739 46462 -1 7 -3047c43,-2141 -434,-3436 -1523,-5255 -2330,-3893 -6335,-6594 -12536,-7733 -720,884 -1533,1723 -2575,2447 -4046,2813 -9135,2718 -13265,128 -1086,-681 -2014,-1533 -2763,-2575 -5324,1104 -9837,3267 -12424,7945 -782,1413 -1397,2705 -1381,4352z"/>
   <path class="fil0" d="M15768 15950c-10,-3112 -208,-5066 1722,-7815 733,-1043 1674,-1900 2863,-2549 3438,-1876 7641,-1635 10763,757 962,737 1761,1685 2370,2885 571,1124 1039,2417 1033,3688l-14 3068c1911,49 2244,968 2249,2974 4,2005 -435,2974 -2238,2879 -2478,7370 -5507,9494 -9153,9502 -222,1 -447,-6 -676,-19 -3660,-469 -7535,-3019 -8972,-9477 -1708,53 -2153,-1129 -2098,-3125 54,-1996 236,-2750 2151,-2768zm-1106 7690c836,4437 3147,7016 5577,8392 3286,1861 6854,1708 10047,-285 2360,-1474 4231,-4024 5446,-8135 4451,-832 3883,-7889 1049,-8683 72,-4976 -2018,-8562 -5326,-10697 -3740,-2413 -8195,-2265 -12035,-166 -3884,2122 -5727,6013 -5901,10872 -3248,795 -2897,8615 1143,8702z"/>
   <rect class="fil0" x="23980" y="22937" width="2218" height="1793"/>
   <path class="fil0" d="M21244 12555c-271,755 -365,1617 -322,2563l2197 0c11,-773 101,-1442 308,-1957 442,-1100 1467,-1298 2432,-1020 721,208 1090,746 1177,1551 143,600 -118,1228 -625,1873 -742,945 -1458,1272 -2015,2479 -297,645 -442,1269 -442,1989l0 1186 2230 0 0 -1045c0,-1715 1539,-2503 2397,-3730 527,-753 839,-1608 787,-2638 -131,-1865 -946,-3076 -2349,-3725 -1059,-321 -2017,-388 -2868,-187 -1298,306 -2411,1276 -2907,2661z"/>
  </g>
 </g>
</svg>
