<?xml version="1.0" encoding="UTF-8"?>
<!DOCTYPE svg PUBLIC "-//W3C//DTD SVG 1.1//EN" "http://www.w3.org/Graphics/SVG/1.1/DTD/svg11.dtd">
<!-- Creator: CorelDRAW X8 -->
<svg xmlns="http://www.w3.org/2000/svg" xml:space="preserve" width="50mm" height="50mm" version="1.1" style="shape-rendering:geometricPrecision; text-rendering:geometricPrecision; image-rendering:optimizeQuality; fill-rule:evenodd; clip-rule:evenodd"
viewBox="0 0 50000 50000"
 xmlns:xlink="http://www.w3.org/1999/xlink">
 <defs>
  <style type="text/css">
   <![CDATA[
    .str0 {stroke:#FEFEFE;stroke-width:2963.3}
    .fil0 {fill:none}
    .fil1 {fill:#FEFEFE}
    .fil2 {fill:#201E1E}
   ]]>
  </style>
 </defs>
 <g id="Capa_x0020_1">
  <metadata id="CorelCorpID_0Corel-Layer"/>
  <g id="_806419133168">
   <path class="fil0 str0" d="M17442 47910l-15061 2c-934,-5129 1589,-9333 5659,-11012l4718 4150 961 0 472 1261 3758 3302c2038,1791 2032,2263 -507,2297z"/>
   <path class="fil0 str0" d="M33132 47894l15061 2c934,-5128 -1589,-9332 -5658,-11012l-4555 4007 -1125 143 -95 924 -4135 3639c-2038,1792 -2032,2263 507,2297z"/>
   <path class="fil0 str0" d="M13680 39606l-4496 -4225c-2228,-2358 -1827,-2080 1240,-3289l2064 -804c2492,-970 2106,-1171 3763,1074l9068 12850 8633 -12434c1910,-2753 1123,-2453 4304,-1307l2158 772c2789,1005 3129,780 1080,3025l-4551 4351 -2162 -26 -29 2212 -8884 5763c-643,424 -501,458 -1022,94l-8979 -5928 12 -2141 -2199 13z"/>
   <path class="fil1" d="M14516 10219c-5884,949 -8697,2265 -8440,3948 86,1838 2287,3040 6603,3608 6577,754 15108,731 25594,-68 4686,-866 6683,-2364 5990,-4493 -1229,-1539 -3975,-2515 -8236,-2927 -1684,-4920 -3635,-7762 -5854,-8526 -1790,-665 -3404,-288 -4926,1217 -4926,-4789 -10114,2989 -10731,7241z"/>
   <g>
    <path class="fil1" d="M35632 14868c-8042,-1572 -14872,-1323 -20489,749 -1212,711 -2100,1562 -2663,2553 -1278,2249 -944,8360 2189,8318 1522,6068 5105,9310 10344,9687 5308,246 8961,-2953 10960,-9598 1903,-124 3083,-1791 2927,-4902 -192,-2862 -1281,-5132 -3268,-6807zm-1326 3343c-6176,-4987 -12405,-4956 -18687,95 -985,296 -1612,945 -1880,1947 -198,737 -208,2806 40,3511 212,600 736,899 2112,941 1527,5709 4510,8942 8952,9700 4590,55 7902,-3190 9938,-9734 1292,210 2011,-428 2157,-1912 76,-765 26,-1802 -178,-2533 -370,-1331 -1257,-2005 -2660,-2022l206 7z"/>
   </g>
   <path class="fil2" d="M15657 10790c-77,-646 603,-1106 1865,-458 3776,2000 11562,2391 15394,198 569,-325 1432,-810 2011,-255 616,588 -197,1269 -1913,2072 -3698,1728 -11057,2250 -16064,-273 -547,-276 -1211,-594 -1293,-1284z"/>
   <path class="fil1" d="M33773 17155c-8872,-536 -14556,-431 -17053,317l0 3616c0,1274 -202,1620 725,2451 2168,1944 5790,1753 7630,-703l278 -475 356 446c1748,2389 5739,2834 7553,619 617,-753 511,-1096 511,-2078l0 -4193z"/>
  </g>
 </g>
</svg>
