<?xml version="1.0" encoding="UTF-8"?>
<!DOCTYPE svg PUBLIC "-//W3C//DTD SVG 1.1//EN" "http://www.w3.org/Graphics/SVG/1.1/DTD/svg11.dtd">
<!-- Creator: CorelDRAW X8 -->
<svg xmlns="http://www.w3.org/2000/svg" xml:space="preserve" width="50mm" height="50mm" version="1.1" style="shape-rendering:geometricPrecision; text-rendering:geometricPrecision; image-rendering:optimizeQuality; fill-rule:evenodd; clip-rule:evenodd"
viewBox="0 0 50000 50000"
 xmlns:xlink="http://www.w3.org/1999/xlink">
 <defs>
  <style type="text/css">
   <![CDATA[
    .fil0 {fill:#FEFEFE}
   ]]>
  </style>
 </defs>
 <g id="Capa_x0020_1">
  <metadata id="CorelCorpID_0Corel-Layer"/>
  <g id="_806419953696">
   <path class="fil0" d="M20648 21267l7 -3766c-34,-1859 -562,-6543 2698,-9374 3326,-2889 5807,-2894 9851,-2939 4084,-46 7065,618 9682,3140 2700,2602 3712,5403 3689,9103l-147 28968 -17169 26 -24 -4554c-6366,238 -8453,-1292 -8598,-5650l0 -4071c0,-1373 209,-1982 -1023,-1970 -3245,88 -3068,233 -1207,-3771l2241 -5142zm8591 20612l4987 0c1021,0 1413,-75 1385,928 -25,904 -567,793 -1438,793l-4934 0 0 -1721zm-10292 -21048l-23 -4233c-24,-4426 -146,-7332 3492,-10492 3712,-3224 6481,-3230 10994,-3280 4559,-51 7886,689 10806,3504 3014,2905 4143,6031 4118,10160l-194 31760 -20753 0 0 -4650c-4576,510 -8680,-1425 -8602,-6169l0 -2984c0,-1861 255,-2231 -1121,-2218 -4761,188 -3184,-1300 -1346,-5769l2629 -5629z"/>
   <path class="fil0" d="M32189 14537c80,1006 1871,1470 1982,-43 136,-1850 1084,-3370 2749,-3050 2078,399 1797,-1387 305,-1908 -1224,-428 -2818,68 -3767,891 -1093,947 -1505,2418 -1269,4110z"/>
   <path class="fil0" d="M41913 14035c-79,-1005 -1871,-1470 -1982,43 -136,1850 -1084,3370 -2748,3050 -2078,-399 -1798,1387 -306,1908 1224,429 2818,-68 3768,-890 1092,-948 1504,-2419 1268,-4111z"/>
   <path class="fil0" d="M21375 35088c-457,-1247 997,-1657 1508,-734 419,757 1519,1409 2388,179 843,-984 1842,-177 1467,848 -410,1121 -1683,1543 -2756,1449 -1118,-98 -2224,-695 -2607,-1742z"/>
   <path class="fil0" d="M34277 23819l-31483 -22279 86 43526 31397 -21247zm-2919 -163l-26838 -18839 86 36903 26752 -18064z"/>
   <path class="fil0" d="M6977 19548l3866 0 0 7462 -2968 0 0 1635 2968 0 0 1161 -2925 0 0 1806 3011 0 0 947 1763 0 -1 -13010 3490 -1 -5 -5570 -9204 0 5 5570zm6854 -3698l-4625 1 1 1967 4624 0 0 -1968z"/>
  </g>
 </g>
</svg>
