<?xml version="1.0" encoding="UTF-8"?>
<!DOCTYPE svg PUBLIC "-//W3C//DTD SVG 1.1//EN" "http://www.w3.org/Graphics/SVG/1.1/DTD/svg11.dtd">
<!-- Creator: CorelDRAW X8 -->
<svg xmlns="http://www.w3.org/2000/svg" xml:space="preserve" width="50mm" height="50mm" version="1.1" style="shape-rendering:geometricPrecision; text-rendering:geometricPrecision; image-rendering:optimizeQuality; fill-rule:evenodd; clip-rule:evenodd"
viewBox="0 0 50000 50000"
 xmlns:xlink="http://www.w3.org/1999/xlink">
 <defs>
  <style type="text/css">
   <![CDATA[
    .fil0 {fill:#FEFEFE}
   ]]>
  </style>
 </defs>
 <g id="Capa_x0020_1">
  <metadata id="CorelCorpID_0Corel-Layer"/>
  <g id="_806419952992">
   <path class="fil0" d="M20577 22060l7 -3815c-34,-1882 -569,-6627 2733,-9494 3368,-2926 5881,-2932 9977,-2977 4137,-46 7156,626 9806,3180 2735,2636 3760,5473 3737,9220l-149 29339 -17389 27 -25 -4613c-6448,241 -8560,-1308 -8707,-5722l0 -4123c0,-1390 211,-2008 -1037,-1996 -3286,89 -3107,237 -1222,-3819l2269 -5207zm8702 20876l5051 0c1034,0 1431,-76 1402,939 -25,916 -574,804 -1456,804l-4997 0 0 -1743zm-10425 -21318l-23 -4287c-24,-4484 -148,-7427 3537,-10627 3760,-3265 6564,-3272 11135,-3322 4617,-52 7987,698 10945,3549 3052,2942 4196,6108 4170,10290l-196 32168 -21019 0 0 -4710c-4635,516 -8791,-1444 -8712,-6248l0 -3022c0,-1886 257,-2261 -1135,-2247 -4823,190 -3225,-1317 -1364,-5843l2662 -5701z"/>
   <path class="fil0" d="M21313 36058c-462,-1264 1011,-1678 1528,-743 425,766 1538,1426 2419,180 853,-996 1865,-179 1485,859 -415,1136 -1704,1563 -2791,1468 -1133,-99 -2253,-704 -2641,-1764z"/>
   <path class="fil0" d="M34381 24644l-31887 -22565 87 44085 31800 -21520zm-2956 -165l-27182 -19080 87 37375 27095 -18295z"/>
   <path class="fil0" d="M6731 20318l3915 0 0 7558 -3005 0 0 1656 3005 0 0 1176 -2962 0 0 1829 3049 0 0 959 1786 0 0 -13177 3534 0 -5 -5642 -9322 0 5 5641zm6942 -3745l-4685 1 2 1992 4683 0 0 -1993z"/>
   <polygon class="fil0" points="38557,18384 35463,15245 36553,14110 38590,16171 43467,11058 44523,12136 "/>
  </g>
 </g>
</svg>
