<?xml version="1.0" encoding="UTF-8"?>
<!DOCTYPE svg PUBLIC "-//W3C//DTD SVG 1.1//EN" "http://www.w3.org/Graphics/SVG/1.1/DTD/svg11.dtd">
<!-- Creator: CorelDRAW X8 -->
<svg xmlns="http://www.w3.org/2000/svg" xml:space="preserve" width="50mm" height="50mm" version="1.1" style="shape-rendering:geometricPrecision; text-rendering:geometricPrecision; image-rendering:optimizeQuality; fill-rule:evenodd; clip-rule:evenodd"
viewBox="0 0 50000 50000"
 xmlns:xlink="http://www.w3.org/1999/xlink">
 <defs>
  <style type="text/css">
   <![CDATA[
    .str0 {stroke:#FEFEFE;stroke-width:169.3}
    .fil0 {fill:#FEFEFE}
   ]]>
  </style>
 </defs>
 <g id="Capa_x0020_1">
  <metadata id="CorelCorpID_0Corel-Layer"/>
  <g id="_806419905568">
   <path class="fil0 str0" d="M14342 3389l-10510 -2c-2000,8 -2231,-18 -2234,1737l-12 10894 4081 0 -6 -6781c-45,-2042 534,-1803 2745,-1786l5936 0 0 -4062z"/>
   <path class="fil0 str0" d="M35438 2915l10511 -2c2000,8 2231,-51 2233,1737l12 10894 -4080 0 5 -6781c45,-2042 -533,-1803 -2745,-1786l-5936 0 0 -4062z"/>
   <path class="fil0 str0" d="M35208 43694l10510 2c2000,-8 2231,52 2234,-1737l11 -10894 -4080 0 6 6781c44,2043 -534,1803 -2746,1786l-5936 0 1 4062z"/>
   <path class="fil0 str0" d="M14518 45319l-10511 2c-2000,-8 -2231,52 -2233,-1737l-12 -10894 4080 0 -5 6781c-45,2043 533,1803 2745,1786l5936 0 0 4062z"/>
  </g>
 </g>
</svg>
