<?xml version="1.0" encoding="UTF-8"?>
<!DOCTYPE svg PUBLIC "-//W3C//DTD SVG 1.1//EN" "http://www.w3.org/Graphics/SVG/1.1/DTD/svg11.dtd">
<!-- Creator: CorelDRAW X8 -->
<svg xmlns="http://www.w3.org/2000/svg" xml:space="preserve" width="35mm" height="50mm" version="1.1" style="shape-rendering:geometricPrecision; text-rendering:geometricPrecision; image-rendering:optimizeQuality; fill-rule:evenodd; clip-rule:evenodd"
viewBox="0 0 35000 50000"
 xmlns:xlink="http://www.w3.org/1999/xlink">
 <defs>
  <style type="text/css">
   <![CDATA[
    .fil0 {fill:#FEFEFE}
   ]]>
  </style>
 </defs>
 <g id="Capa_x0020_1">
  <metadata id="CorelCorpID_0Corel-Layer"/>
  <g id="_806419128240">
   <path class="fil0" d="M3588 25040c71,1712 -1518,1384 -1518,327 0,-4015 0,-6821 0,-8416 0,-5698 3611,-11062 8562,-13753 5815,-2602 11476,-1893 16654,1474 2956,2138 5081,5053 5721,9074 265,1669 -1303,1473 -1462,373 -772,-3775 -2804,-6244 -5733,-8410 -2929,-2165 -9918,-3213 -14252,-873 -4820,2603 -7972,7198 -7972,12771l0 7433z"/>
   <path class="fil0" d="M13908 6965c826,-344 434,-1745 -928,-1092 -5180,2340 -7607,5826 -7657,11447 -54,6254 -98,10205 -105,11877 -2,546 25,1000 53,1540 279,5313 2515,8783 4420,9868 1906,1084 1969,-627 1268,-1095 -3228,-2414 -3865,-5741 -4000,-9556l10 -13016c3,-4525 2936,-8077 6939,-9973z"/>
   <path class="fil0" d="M15546 6583c-1119,140 -1342,-1380 -54,-1529 6524,-922 11136,1522 13837,7331 1852,3984 1011,13648 1164,18560 59,1897 -1574,1638 -1664,511 -347,-4572 600,-15091 -1207,-18952 -1916,-4095 -6183,-6542 -12076,-5921z"/>
   <path class="fil0" d="M30194 34104c411,-1366 -1023,-1775 -1324,-928 -2602,6654 -7511,10342 -14683,8206 -347,-103 -648,-262 -979,-356 -1219,-347 -1823,449 -1050,1223 348,349 650,440 1099,597 7238,2535 13747,-212 16937,-8742z"/>
   <path class="fil0" d="M3655 31742c9,-2293 14,-3440 14,-3440 -42,-1351 -1517,-1319 -1599,-27 0,2339 0,3513 0,3522 11,1545 307,3110 889,4696 882,2477 2374,4680 4478,6607 3349,3036 7472,4301 12368,3795 1133,-86 1087,-1781 -417,-1627 -4024,413 -7512,-601 -10463,-3041 -1993,-1560 -3458,-3581 -4396,-6062 -555,-1774 -846,-3249 -874,-4423z"/>
   <path class="fil0" d="M25135 45340c1801,-847 3448,-2425 4608,-3741 1819,-1750 3240,-5212 3668,-7728 170,-1002 258,-1999 264,-3002 0,-8182 0,-12273 0,-12273 -25,-1431 -52,-2168 -82,-2211 -137,-1187 -1678,-993 -1611,150 28,1802 42,2707 41,2716 -9,7718 -14,11577 -14,11577 17,1634 -117,3038 -499,4343 -1591,4392 -4295,7544 -8246,9307 -856,381 -1827,506 -1451,1438 456,1133 2625,-249 3322,-576z"/>
   <path class="fil0" d="M12037 36083c-1410,-1650 -1783,-3707 -1775,-6498 -48,-925 -1497,-1032 -1584,110 -277,3228 479,5749 2266,7562 2409,2728 5467,3665 9174,2813 1217,-196 798,-1854 -437,-1475 -2937,733 -5485,-104 -7644,-2512z"/>
   <path class="fil0" d="M24602 34677c-726,1468 -1802,2565 -3228,3290 -474,1059 -73,1459 1201,1202 1280,-689 2311,-1708 3086,-3057 1092,-1900 1369,-3325 1333,-5440 -71,-4156 -6,-6149 4,-6138 -135,-1196 -1795,-1037 -1665,219 14,2032 26,3658 35,4880 16,2196 235,3023 -766,5044z"/>
   <path class="fil0" d="M26698 15282c403,4061 312,5415 294,6879 4,1077 -1644,1243 -1611,-341 37,-1747 11,-4605 -190,-6267 -170,-1393 1399,-1358 1507,-271z"/>
   <path class="fil0" d="M8678 25135c-54,-5042 -82,-7563 -82,-7563 99,-3230 1373,-5733 3823,-7508 4109,-3342 9893,-1948 12941,1938 812,1034 -321,2158 -1228,1038 -3029,-3818 -7943,-4246 -11058,-1529 -1943,1581 -2880,3820 -2812,6716 18,4551 27,6826 27,6826 23,1433 -1497,1324 -1611,82z"/>
   <path class="fil0" d="M13580 31532c-37,-623 -32,-1306 13,-2049 -24,-1117 -1676,-962 -1639,55 -147,3045 14,6791 4383,6771 3619,-17 4161,-3005 4088,-5761 -68,-2574 -116,-5089 -116,-7672 136,-1474 -1597,-1474 -1556,-82 0,1769 16,3518 38,5269 21,1625 145,4436 -571,5606 -440,720 -1139,1091 -1843,1079 -1887,-31 -2698,-1549 -2797,-3216z"/>
   <path class="fil0" d="M22098 33060c-37,-4514 -55,-6771 -55,-6771 0,-17 -7,-2670 -23,-7959 -3,-1190 67,-2073 -532,-3176 -1208,-2225 -4440,-2587 -6382,-1018 -1198,967 -1716,2397 -1554,4290 0,0 9,2748 27,8245 61,1481 -1613,1335 -1583,136 -19,-5551 -28,-8327 -28,-8327 -38,-3150 1074,-5286 3336,-6406 2230,-1104 5046,-640 6720,1240 1919,2156 1667,3821 1691,6484 33,3708 -60,5548 -61,5562 19,5006 28,7518 27,7536 101,1564 -1628,1632 -1583,164z"/>
   <path class="fil0" d="M15286 18426c-18,7554 -28,11330 -28,11330 -38,1445 1664,1475 1659,28 18,-7973 -48,-11959 -48,-11959 -15,-1855 2006,-1728 1933,-123 -40,891 5,1308 6,1324 120,1073 1447,1030 1597,-68 201,-2910 -709,-3979 -2348,-4123 -2149,-6 -2891,1414 -2771,3591z"/>
  </g>
 </g>
</svg>
