<?xml version="1.0" encoding="UTF-8"?>
<!DOCTYPE svg PUBLIC "-//W3C//DTD SVG 1.1//EN" "http://www.w3.org/Graphics/SVG/1.1/DTD/svg11.dtd">
<!-- Creator: CorelDRAW X8 -->
<svg xmlns="http://www.w3.org/2000/svg" xml:space="preserve" width="25mm" height="5mm" version="1.1" style="shape-rendering:geometricPrecision; text-rendering:geometricPrecision; image-rendering:optimizeQuality; fill-rule:evenodd; clip-rule:evenodd"
viewBox="0 0 25000 5000"
 xmlns:xlink="http://www.w3.org/1999/xlink">
 <defs>
  <style type="text/css">
   <![CDATA[
    .str0 {stroke:#FEFEFE;stroke-width:76.2}
    .fil0 {fill:#FEFEFE}
   ]]>
  </style>
 </defs>
 <g id="Capa_x0020_1">
  <metadata id="CorelCorpID_0Corel-Layer"/>
  <g id="_806426184192">
   <path class="fil0 str0" d="M3810 2131l2 -1275 1100 -645 1097 629 -2 1276 -1101 645 -1096 -630zm94 -55l3 -1166 1005 -589 1002 575 -2 1166 -1006 589 -1002 -575z"/>
   <path class="fil0 str0" d="M6150 2137l2 -1275 1100 -645 1097 629 -2 1276 -1101 645 -1096 -630zm94 -55l3 -1166 1005 -590 1002 576 -2 1166 -1005 589 -1003 -575z"/>
   <path class="fil0 str0" d="M8466 2133l2 -1275 1100 -646 1097 630 -2 1276 -1101 645 -1096 -630zm94 -56l3 -1165 1005 -590 1002 576 -2 1165 -1006 590 -1002 -576z"/>
   <path class="fil0 str0" d="M10803 2132l3 -1275 1100 -646 1097 630 -3 1276 -1100 645 -1097 -630zm95 -56l2 -1165 1006 -590 1002 576 -2 1165 -1006 590 -1002 -576z"/>
   <path class="fil0 str0" d="M13138 2131l2 -1275 1100 -645 1097 629 -2 1276 -1101 645 -1096 -630zm94 -55l3 -1166 1005 -589 1002 575 -2 1166 -1005 589 -1003 -575z"/>
   <path class="fil0 str0" d="M15454 2125l2 -1275 1100 -645 1097 629 -2 1276 -1101 645 -1096 -630zm94 -55l3 -1166 1005 -590 1002 576 -2 1166 -1006 589 -1002 -575z"/>
   <path class="fil0 str0" d="M17762 2122l3 -1275 1100 -645 1097 629 -2 1276 -1101 645 -1097 -630zm95 -55l3 -1166 1005 -589 1002 575 -2 1166 -1006 589 -1002 -575z"/>
   <path class="fil0 str0" d="M20088 2129l3 -1276 1100 -645 1096 630 -2 1275 -1101 645 -1096 -629zm95 -56l2 -1165 1005 -590 1002 575 -1 1166 -1006 590 -1002 -576z"/>
   <path class="fil0 str0" d="M22410 2129l3 -1276 1100 -645 1096 630 -2 1276 -1101 644 -1096 -629zm95 -56l2 -1165 1005 -590 1003 575 -2 1166 -1006 590 -1002 -576z"/>
   <path class="fil0 str0" d="M1475 2146l2 -1276 1100 -645 1097 630 -2 1275 -1101 645 -1096 -629zm94 -56l3 -1165 1005 -590 1002 575 -2 1166 -1005 590 -1003 -576z"/>
   <path class="fil0 str0" d="M2617 4141l3 -1275 1100 -646 1097 630 -2 1276 -1101 644 -1097 -629zm95 -56l2 -1165 1006 -590 1002 575 -2 1166 -1006 590 -1002 -576z"/>
   <path class="fil0 str0" d="M4957 4147l3 -1276 1100 -645 1097 630 -2 1275 -1101 645 -1097 -629zm95 -56l3 -1165 1005 -590 1002 575 -2 1166 -1006 589 -1002 -575z"/>
   <path class="fil0 str0" d="M7273 4143l3 -1276 1100 -645 1097 630 -3 1275 -1100 645 -1097 -629zm95 -56l2 -1166 1006 -589 1002 575 -2 1166 -1006 589 -1002 -575z"/>
   <path class="fil0 str0" d="M9611 4141l3 -1275 1100 -645 1096 630 -2 1275 -1101 645 -1096 -630zm95 -55l2 -1166 1005 -589 1003 575 -2 1166 -1006 589 -1002 -575z"/>
   <path class="fil0 str0" d="M11945 4141l3 -1275 1100 -646 1097 630 -2 1276 -1101 645 -1097 -630zm95 -56l3 -1165 1005 -590 1002 576 -2 1165 -1006 590 -1002 -576z"/>
   <path class="fil0 str0" d="M14261 4135l3 -1276 1100 -645 1097 630 -3 1275 -1100 645 -1097 -629zm95 -56l2 -1165 1006 -590 1002 575 -2 1166 -1006 590 -1002 -576z"/>
   <path class="fil0 str0" d="M16553 4139l3 -1276 1100 -645 1097 630 -2 1275 -1101 645 -1097 -629zm95 -56l3 -1165 1005 -590 1002 575 -2 1166 -1006 589 -1002 -575z"/>
   <path class="fil0 str0" d="M18896 4138l2 -1275 1100 -645 1097 629 -2 1276 -1101 645 -1096 -630zm94 -55l3 -1166 1005 -589 1002 575 -2 1166 -1006 589 -1002 -575z"/>
   <path class="fil0 str0" d="M21218 4138l2 -1275 1100 -645 1097 629 -2 1276 -1101 645 -1096 -630zm94 -55l3 -1166 1005 -589 1002 575 -2 1166 -1006 589 -1002 -575z"/>
   <path class="fil0 str0" d="M332 4155l3 -1275 1100 -645 1096 629 -2 1276 -1100 645 -1097 -630zm95 -55l2 -1166 1005 -590 1003 576 -2 1166 -1006 589 -1002 -575z"/>
  </g>
 </g>
</svg>
