<svg xmlns="http://www.w3.org/2000/svg" width="1800" height="541.44" viewBox="0 0 1800 541.44"><path d="M345.29,69.91l36,63-36,63H273.4l-36-63,36-63h71.88m.58-1h-73l-36.56,64,36.56,64h73l36.56-64-36.56-64ZM227.16,138.82l36,63-36,63H155.27l-36-63,36-63h71.88m.58-1h-73l-36.56,64,36.56,64h73l36.56-64-36.56-64ZM109,69.91l36,63-36,63H37.14l-36-63,36-63H109m.58-1h-73L0,132.9l36.56,64h73l36.56-64-36.56-64ZM227.16,1l36,63-36,63H155.27l-36-63,36-63h71.88m.58-1h-73L118.13,64l36.56,64h73L264.3,64,227.74,0ZM581.55,69.91l36,63-36,63H509.67l-36-63,36-63h71.88m.58-1h-73l-36.56,64,36.56,64h73l36.56-64-36.56-64ZM463.42,138.82l36,63-36,63H391.54l-36-63,36-63h71.88m.58-1H391l-36.56,64,36.56,64h73l36.56-64-36.56-64ZM463.42,1l36,63-36,63H391.54l-36-63,36-63h71.88M464,0H391L354.39,64,391,128h73l36.56-64L464,0ZM817.81,69.91l36,63-36,63H745.93l-36-63,36-63h71.88m.58-1h-73l-36.56,64,36.56,64h73l36.56-64-36.56-64ZM699.68,138.82l36,63-36,63H627.8l-36-63,36-63h71.88m.58-1h-73l-36.56,64,36.56,64h73l36.56-64-36.56-64ZM581.55,69.91l36,63-36,63H509.67l-36-63,36-63h71.88m.58-1h-73l-36.56,64,36.56,64h73l36.56-64-36.56-64ZM699.68,1l36,63-36,63H627.8l-36-63,36-63h71.88m.58-1h-73L590.65,64l36.56,64h73l36.56-64L700.26,0Zm353.81,69.91,36,63-36,63H982.19l-36-63,36-63h71.88m.58-1h-73L945,132.9l36.56,64h73l36.56-64-36.56-64ZM935.94,138.82l36,63-36,63H864.06l-36-63,36-63h71.88m.58-1h-73l-36.56,64,36.56,64h73l36.56-64-36.56-64ZM935.94,1l36,63-36,63H864.06l-36-63,36-63h71.88m.58-1h-73L826.92,64l36.56,64h73l36.56-64L936.52,0Zm353.81,69.91,36,63-36,63h-71.88l-36-63,36-63h71.88m.58-1h-73l-36.56,64,36.56,64h73l36.56-64-36.56-64ZM1172.2,138.82l36,63-36,63h-71.88l-36-63,36-63h71.88m.58-1h-73l-36.56,64,36.56,64h73l36.56-64-36.56-64ZM1172.2,1l36,63-36,63h-71.88l-36-63,36-63h71.88m.58-1h-73l-36.56,64,36.56,64h73l36.56-64L1172.78,0ZM1526.6,69.91l36,63-36,63h-71.88l-36-63,36-63h71.88m.58-1h-73l-36.56,64,36.56,64h73l36.56-64-36.56-64Zm-118.71,69.91,36,63-36,63h-71.88l-36-63,36-63h71.88m.58-1h-73l-36.56,64,36.56,64h73l36.56-64-36.56-64ZM1408.46,1l36,63-36,63h-71.88l-36-63,36-63h71.88m.58-1h-73l-36.56,64L1336,128h73l36.56-64L1409,0Zm353.81,69.91,36,63-36,63H1691l-36-63,36-63h71.88m.58-1h-73l-36.56,64,36.56,64h73l36.56-64-36.56-64Zm-118.71,69.91,36,63-36,63h-71.88l-36-63,36-63h71.88m.58-1h-73l-36.56,64,36.56,64h73l36.56-64-36.56-64ZM1526.6,69.91l36,63-36,63h-71.88l-36-63,36-63h71.88m.58-1h-73l-36.56,64,36.56,64h73l36.56-64-36.56-64ZM1644.73,1l36,63-36,63h-71.88l-36-63,36-63h71.88m.58-1h-73L1535.7,64l36.56,64h73l36.56-64L1645.31,0Zm-1300,207.73,36,63-36,63H273.4l-36-63,36-63h71.88m.58-1h-73l-36.56,64,36.56,64h73l36.56-64-36.56-64ZM227.16,276.64l36,63-36,63H155.27l-36-63,36-63h71.88m.58-1h-73l-36.56,64,36.56,64h73l36.56-64-36.56-64ZM109,207.73l36,63-36,63H37.14l-36-63,36-63H109m.58-1h-73L0,270.72l36.56,64h73l36.56-64-36.56-64Zm117.55-67.91,36,63-36,63H155.27l-36-63,36-63h71.88m.58-1h-73l-36.56,64,36.56,64h73l36.56-64-36.56-64Zm353.81,69.91,36,63-36,63H509.67l-36-63,36-63h71.88m.58-1h-73l-36.56,64,36.56,64h73l36.56-64-36.56-64ZM463.42,276.64l36,63-36,63H391.54l-36-63,36-63h71.88m.58-1H391l-36.56,64,36.56,64h73l36.56-64-36.56-64Zm-.58-136.82,36,63-36,63H391.54l-36-63,36-63h71.88m.58-1H391l-36.56,64,36.56,64h73l36.56-64-36.56-64Zm353.81,69.91,36,63-36,63H745.93l-36-63,36-63h71.88m.58-1h-73l-36.56,64,36.56,64h73l36.56-64-36.56-64ZM699.68,276.64l36,63-36,63H627.8l-36-63,36-63h71.88m.58-1h-73l-36.56,64,36.56,64h73l36.56-64-36.56-64ZM581.55,207.73l36,63-36,63H509.67l-36-63,36-63h71.88m.58-1h-73l-36.56,64,36.56,64h73l36.56-64-36.56-64Zm117.55-67.91,36,63-36,63H627.8l-36-63,36-63h71.88m.58-1h-73l-36.56,64,36.56,64h73l36.56-64-36.56-64Zm353.81,69.91,36,63-36,63H982.19l-36-63,36-63h71.88m.58-1h-73l-36.56,64,36.56,64h73l36.56-64-36.56-64ZM935.94,276.64l36,63-36,63H864.06l-36-63,36-63h71.88m.58-1h-73l-36.56,64,36.56,64h73l36.56-64-36.56-64Zm-.58-136.82,36,63-36,63H864.06l-36-63,36-63h71.88m.58-1h-73l-36.56,64,36.56,64h73l36.56-64-36.56-64Zm353.81,69.91,36,63-36,63h-71.88l-36-63,36-63h71.88m.58-1h-73l-36.56,64,36.56,64h73l36.56-64-36.56-64ZM1172.2,276.64l36,63-36,63h-71.88l-36-63,36-63h71.88m.58-1h-73l-36.56,64,36.56,64h73l36.56-64-36.56-64Zm-.58-136.82,36,63-36,63h-71.88l-36-63,36-63h71.88m.58-1h-73l-36.56,64,36.56,64h73l36.56-64-36.56-64Zm353.81,69.91,36,63-36,63h-71.88l-36-63,36-63h71.88m.58-1h-73l-36.56,64,36.56,64h73l36.56-64-36.56-64Zm-118.71,69.91,36,63-36,63h-71.88l-36-63,36-63h71.88m.58-1h-73l-36.56,64,36.56,64h73l36.56-64-36.56-64Zm-.58-136.82,36,63-36,63h-71.88l-36-63,36-63h71.88m.58-1h-73l-36.56,64,36.56,64h73l36.56-64-36.56-64Zm353.81,69.91,36,63-36,63H1691l-36-63,36-63h71.88m.58-1h-73l-36.56,64,36.56,64h73l36.56-64-36.56-64Zm-118.71,69.91,36,63-36,63h-71.88l-36-63,36-63h71.88m.58-1h-73l-36.56,64,36.56,64h73l36.56-64-36.56-64ZM1526.6,207.73l36,63-36,63h-71.88l-36-63,36-63h71.88m.58-1h-73l-36.56,64,36.56,64h73l36.56-64-36.56-64Zm117.55-67.91,36,63-36,63h-71.88l-36-63,36-63h71.88m.58-1h-73l-36.56,64,36.56,64h73l36.56-64-36.56-64Zm-1300,207.73,36,63-36,63H273.4l-36-63,36-63h71.88m.58-1h-73l-36.56,64,36.56,64h73l36.56-64-36.56-64ZM227.16,414.46l36,63-36,63H155.27l-36-63,36-63h71.88m.58-1h-73l-36.56,64,36.56,64h73l36.56-64-36.56-64ZM109,345.55l36,63-36,63H37.14l-36-63,36-63H109m.58-1h-73L0,408.54l36.56,64h73l36.56-64-36.56-64Zm117.55-67.91,36,63-36,63H155.27l-36-63,36-63h71.88m.58-1h-73l-36.56,64,36.56,64h73l36.56-64-36.56-64Zm353.81,69.91,36,63-36,63H509.67l-36-63,36-63h71.88m.58-1h-73l-36.56,64,36.56,64h73l36.56-64-36.56-64ZM463.42,414.46l36,63-36,63H391.54l-36-63,36-63h71.88m.58-1H391l-36.56,64,36.56,64h73l36.56-64-36.56-64Zm-.58-136.82,36,63-36,63H391.54l-36-63,36-63h71.88m.58-1H391l-36.56,64,36.56,64h73l36.56-64-36.56-64Zm353.81,69.91,36,63-36,63H745.93l-36-63,36-63h71.88m.58-1h-73l-36.56,64,36.56,64h73l36.56-64-36.56-64ZM699.68,414.46l36,63-36,63H627.8l-36-63,36-63h71.88m.58-1h-73l-36.56,64,36.56,64h73l36.56-64-36.56-64ZM581.55,345.55l36,63-36,63H509.67l-36-63,36-63h71.88m.58-1h-73l-36.56,64,36.56,64h73l36.56-64-36.56-64Zm117.55-67.91,36,63-36,63H627.8l-36-63,36-63h71.88m.58-1h-73l-36.56,64,36.56,64h73l36.56-64-36.56-64Zm353.81,69.91,36,63-36,63H982.19l-36-63,36-63h71.88m.58-1h-73l-36.56,64,36.56,64h73l36.56-64-36.56-64ZM935.94,414.46l36,63-36,63H864.06l-36-63,36-63h71.88m.58-1h-73l-36.56,64,36.56,64h73l36.56-64-36.56-64Zm-.58-136.82,36,63-36,63H864.06l-36-63,36-63h71.88m.58-1h-73l-36.56,64,36.56,64h73l36.56-64-36.56-64Zm353.81,69.91,36,63-36,63h-71.88l-36-63,36-63h71.88m.58-1h-73l-36.56,64,36.56,64h73l36.56-64-36.56-64ZM1172.2,414.46l36,63-36,63h-71.88l-36-63,36-63h71.88m.58-1h-73l-36.56,64,36.56,64h73l36.56-64-36.56-64Zm-.58-136.82,36,63-36,63h-71.88l-36-63,36-63h71.88m.58-1h-73l-36.56,64,36.56,64h73l36.56-64-36.56-64Zm353.81,69.91,36,63-36,63h-71.88l-36-63,36-63h71.88m.58-1h-73l-36.56,64,36.56,64h73l36.56-64-36.56-64Zm-118.71,69.91,36,63-36,63h-71.88l-36-63,36-63h71.88m.58-1h-73l-36.56,64,36.56,64h73l36.56-64-36.56-64Zm-.58-136.82,36,63-36,63h-71.88l-36-63,36-63h71.88m.58-1h-73l-36.56,64,36.56,64h73l36.56-64-36.56-64Zm353.81,69.91,36,63-36,63H1691l-36-63,36-63h71.88m.58-1h-73l-36.56,64,36.56,64h73l36.56-64-36.56-64Zm-118.71,69.91,36,63-36,63h-71.88l-36-63,36-63h71.88m.58-1h-73l-36.56,64,36.56,64h73l36.56-64-36.56-64ZM1526.6,345.55l36,63-36,63h-71.88l-36-63,36-63h71.88m.58-1h-73l-36.56,64,36.56,64h73l36.56-64-36.56-64Zm117.55-67.91,36,63-36,63h-71.88l-36-63,36-63h71.88m.58-1h-73l-36.56,64,36.56,64h73l36.56-64-36.56-64Z"/></svg>