<svg xmlns="http://www.w3.org/2000/svg" width="406.32" height="60" viewBox="0 0 406.32 60">
	<path d="M78.07,15.56H61.59L53.33,30l8.25,14.44H78.07L86.33,30Zm-.58,27.89H62.17L54.48,30l7.68-13.44H77.49L85.18,30ZM34.92,31.11,26.67,45.56,34.92,60H51.41l8.25-14.44L51.41,31.11ZM50.83,59H35.5L27.82,45.56,35.5,32.11H50.83l7.68,13.44ZM24.74,15.56H8.25L0,30,8.25,44.44H24.74L33,30Zm-.58,27.89H8.83L1.15,30,8.83,16.56H24.16L31.84,30ZM51.41,28.89l8.25-14.44L51.41,0H34.92L26.67,14.44l8.25,14.44ZM35.5,1H50.83l7.68,13.44L50.83,27.89H35.5L27.82,14.44ZM88.25,31.11,80,45.56,88.25,60h16.49L113,45.56l-8.25-14.44ZM104.16,59H88.83L81.15,45.56l7.68-13.44h15.33l7.68,13.44Zm.58-30.11L113,14.44,104.74,0H88.25L80,14.44l8.25,14.44ZM88.83,1h15.33l7.68,13.44-7.68,13.44H88.83L81.15,14.44Zm95.91,14.56H168.25L160,30l8.25,14.44h16.49L193,30Zm-.58,27.89H168.83L161.15,30l7.68-13.44h15.33L191.84,30ZM141.59,31.11l-8.25,14.44L141.59,60h16.49l8.25-14.44-8.25-14.44ZM157.49,59H142.17l-7.68-13.44,7.68-13.44h15.33l7.68,13.44ZM131.41,15.56H114.92L106.67,30l8.25,14.44h16.49L139.66,30Zm-.58,27.89H115.5L107.82,30l7.68-13.44h15.33L138.51,30Zm27.25-14.56,8.25-14.44L158.07,0H141.59l-8.25,14.44,8.25,14.44ZM142.17,1h15.33l7.68,13.44-7.68,13.44H142.17l-7.68-13.44Zm95.91,14.56H221.58L213.33,30l8.25,14.44h16.49L246.33,30Zm-.58,27.89H222.16L214.48,30l7.68-13.44h15.33L245.17,30ZM194.92,31.11l-8.25,14.44L194.92,60h16.49l8.25-14.44-8.25-14.44ZM210.83,59H195.5l-7.68-13.44,7.68-13.44h15.33l7.68,13.44Zm.58-30.11,8.25-14.44L211.41,0H194.92l-8.25,14.44,8.25,14.44ZM195.5,1h15.33l7.68,13.44-7.68,13.44H195.5l-7.68-13.44Zm95.91,14.56H274.92L266.66,30l8.25,14.44h16.49L299.66,30Zm-.58,27.89H275.5L267.82,30l7.68-13.44h15.33L298.51,30ZM248.25,31.11,240,45.56,248.25,60h16.49L273,45.56l-8.25-14.44ZM264.16,59H248.83l-7.68-13.44,7.68-13.44h15.33l7.68,13.44Zm.58-30.11L273,14.44,264.74,0H248.25L240,14.44l8.25,14.44ZM248.83,1h15.33l7.68,13.44-7.68,13.44H248.83l-7.68-13.44Zm52.75,30.11-8.25,14.44L301.58,60h16.49l8.25-14.44-8.25-14.44ZM317.49,59H302.16l-7.68-13.44,7.68-13.44h15.33l7.68,13.44Zm.58-30.11,8.25-14.44L318.07,0H301.58l-8.25,14.44,8.25,14.44ZM302.16,1h15.33l7.68,13.44-7.68,13.44H302.16l-7.68-13.44Zm95.91,14.56H381.58L373.33,30l8.25,14.44h16.49L406.32,30Zm-.58,27.89H382.16L374.48,30l7.68-13.44h15.33L405.17,30ZM354.92,31.11l-8.25,14.44L354.92,60H371.4l8.25-14.44L371.4,31.11ZM370.82,59H355.5l-7.68-13.44,7.68-13.44h15.33l7.68,13.44ZM344.74,15.56H328.25L320,30l8.25,14.44h16.49L353,30Zm-.58,27.89H328.83L321.15,30l7.68-13.44h15.33L351.84,30ZM371.4,28.89l8.25-14.44L371.4,0H354.92l-8.25,14.44,8.25,14.44ZM355.5,1h15.33l7.68,13.44-7.68,13.44H355.5l-7.68-13.44Z" fill="#fff"/>
</svg>