<svg xmlns="http://www.w3.org/2000/svg" width="32" height="32" viewBox="0 0 32 32"><path d="M27.51,18.14V13.86a4,4,0,1,0-3.86-6.65L19.84,5A4,4,0,0,0,20,4a4,4,0,0,0-8,0,4,4,0,0,0,.16,1L8.36,7.22a4,4,0,1,0-3.86,6.65v4.28a4,4,0,1,0,3.86,6.65L12.16,27a4,4,0,1,0,7.69,0l3.8-2.17a4,4,0,1,0,3.86-6.65ZM26.51,8a2,2,0,1,1-2,2A2,2,0,0,1,26.51,8ZM16,2a2,2,0,1,1-2,2A2,2,0,0,1,16,2ZM3.49,10a2,2,0,1,1,2,2A2,2,0,0,1,3.49,10Zm2,14a2,2,0,1,1,2-2A2,2,0,0,1,5.49,24ZM16,30a2,2,0,1,1,2-2A2,2,0,0,1,16,30Zm2.86-4.79a4,4,0,0,0-5.72,0L9.34,23a3.92,3.92,0,0,0-2.85-4.9V13.86A3.92,3.92,0,0,0,9.34,9l3.8-2.17a4,4,0,0,0,5.72,0L22.66,9a3.92,3.92,0,0,0,2.84,4.9v4.28A3.92,3.92,0,0,0,22.66,23ZM26.51,24a2,2,0,1,1,2-2A2,2,0,0,1,26.51,24ZM14.94,20.24,10.7,16l1.41-1.41,2.83,2.83,4.95-5,1.41,1.41Z" fill="#fff"/></svg>