<svg xmlns="http://www.w3.org/2000/svg" width="35.47" height="31.93" viewBox="0 0 35.47 31.93">
	<path d="M32.33,12.57,21.11,1.45,22.52,0,33.73,11.15Zm-5.11,5.05,3.26,3.23L19.26,32,16,28.73,12.74,32,1.52,20.85l3.26-3.23L1.52,14.39,12.74,3.28,16,6.51l3.26-3.23L30.48,14.39ZM25.79,19h0l-6.53-6.47L16,15.79l-4.68-4.64,3.26-3.23L12.74,6.09l-8.37,8.3,1.84,1.83L7.84,14.6,19.05,25.71l-1.63,1.62,1.84,1.83,8.37-8.3ZM10.89,1.45,9.48,0-1.73,11.15l1.41,1.42Z" transform="translate(1.73 -0.03)" fill="#fff"/>
</svg>