<?xml version="1.0" encoding="UTF-8"?>
<!DOCTYPE svg PUBLIC "-//W3C//DTD SVG 1.1//EN" "http://www.w3.org/Graphics/SVG/1.1/DTD/svg11.dtd">
<!-- Creator: CorelDRAW X8 -->
<svg xmlns="http://www.w3.org/2000/svg" xml:space="preserve" width="50mm" height="50mm" version="1.1" style="shape-rendering:geometricPrecision; text-rendering:geometricPrecision; image-rendering:optimizeQuality; fill-rule:evenodd; clip-rule:evenodd"
viewBox="0 0 50000 50000"
 xmlns:xlink="http://www.w3.org/1999/xlink">
 <defs>
  <style type="text/css">
   <![CDATA[
    .str0 {stroke:#FFFFFF;stroke-width:2116.6}
    .fil0 {fill:none}
   ]]>
  </style>
 </defs>
 <g id="Capa_x0020_1">
  <metadata id="CorelCorpID_0Corel-Layer"/>
  <g id="_806346626128">
   <path class="fil0 str0" d="M7667 21570c4,-2910 1858,-3240 4332,-3244l2216 -3 0 0 38 -7946c170,-5425 5422,-8514 10915,-8732 4199,-166 8539,1344 10860,4771 1607,2373 1566,4022 1600,6690l67 5184 2152 -4c4346,-6 4357,1324 4375,3284l-3 20428c0,2062 -120,3675 -3139,3834l-29989 10c-2075,-42 -3389,-1192 -3508,-3311l84 -20961zm9800 -3251l17052 -25 -84 -4988c-44,-2612 -62,-4129 -1376,-5479 -1722,-1771 -4737,-2797 -7208,-2834 -2903,-44 -5779,1039 -7390,3401 -1226,1796 -981,2783 -985,4832l-9 5093zm-6250 5284c-37,-2166 1630,-2075 3568,-2078l20647 -32c4946,6 5251,-182 5224,2110l-2 16186c-59,1826 357,2833 -2610,2741l-23205 7c-2026,21 -3586,-200 -3689,-2054l67 -16880z"/>
   <path class="fil0 str0" d="M25933 25570c2472,0 4476,1997 4476,4461 0,2014 -1338,3715 -3176,4270l-1 5090 -2430 -53 -2 -5044c-1923,-500 -3342,-1994 -3342,-4263 0,-2269 2004,-4461 4475,-4461z"/>
  </g>
 </g>
</svg>
