<?xml version="1.0" encoding="utf-8"?>
<!-- Generator: Adobe Illustrator 21.0.0, SVG Export Plug-In . SVG Version: 6.00 Build 0)  -->
<svg version="1.1" id="Layer_1" xmlns="http://www.w3.org/2000/svg" xmlns:xlink="http://www.w3.org/1999/xlink" x="0px" y="0px"
	 viewBox="0 0 55.8 64.4" style="enable-background:new 0 0 55.8 64.4;" xml:space="preserve">
<style type="text/css">
	.st0{fill:#FFFF00;}
</style>
<g>
	<path class="st0" d="M11.9,12.7l-1.5-2.6L0,16.1v12h3C4,21.9,7.3,16.5,11.9,12.7z"/>
	<path class="st0" d="M52.8,28.1h3v-12l-10.4-6l-1.5,2.6C48.5,16.5,51.8,21.9,52.8,28.1z"/>
	<path class="st0" d="M27.9,7C31,7,34,7.5,36.8,8.6L38.3,6L27.9,0L17.5,6l1.5,2.6C21.7,7.5,24.7,7,27.9,7z"/>
	<path class="st0" d="M43.9,51.7l1.5,2.6l10.4-6v-12h-3C51.8,42.5,48.5,47.9,43.9,51.7z"/>
	<path class="st0" d="M3,36.3H0v12l10.4,6l1.5-2.6C7.3,47.9,4,42.5,3,36.3z"/>
	<path class="st0" d="M27.9,57.4c-3.1,0-6.2-0.6-8.9-1.6l-1.5,2.6l10.4,6l10.4-6l-1.5-2.6C34,56.9,31,57.4,27.9,57.4z"/>
</g>
</svg>
